<?xml version="1.0" encoding="utf-8"?>
<!-- Generator: Adobe Illustrator 20.0.0, SVG Export Plug-In . SVG Version: 6.00 Build 0)  -->
<svg version="1.1" id="Слой_1" xmlns="http://www.w3.org/2000/svg" xmlns:xlink="http://www.w3.org/1999/xlink" x="0px" y="0px"
	 viewBox="0 0 283.5 283.5" style="enable-background:new 0 0 283.5 283.5;" xml:space="preserve">
<style type="text/css">
	.st0{fill:#CECC08;}
	.st1{opacity:0.74;fill:url(#SVGID_1_);enable-background:new    ;}
	.st2{opacity:0.81;fill:url(#SVGID_2_);enable-background:new    ;}
</style>
<polygon class="st0" points="283.5,284.4 283.5,1 0,1 0,282.9 219.5,284.4 "/>
<linearGradient id="SVGID_1_" gradientUnits="userSpaceOnUse" x1="130.5529" y1="125.2216" x2="137.2256" y2="275.8332" gradientTransform="matrix(1 0 0 -1 0 284.54)">
	<stop  offset="0.6485" style="stop-color:#BDBC1E;stop-opacity:0"/>
	<stop  offset="0.8896" style="stop-color:#030304;stop-opacity:0.7"/>
</linearGradient>
<path class="st1" d="M270.1,75.2c3.5-16.8-101.9-53-164.1-58.8c-26.1-2.5-44.2,0.5-53.5,2.4C29.1,23.6,11.2,32.5,0.1,39.2
	c-0.1,3-0.1,6.1,0,9.3c0.1,6.4,0.6,12.3,1.2,17.9C206.8,90.7,267.5,87.4,270.1,75.2z"/>
<linearGradient id="SVGID_2_" gradientUnits="userSpaceOnUse" x1="92.8104" y1="542.6863" x2="182.6761" y2="-4.4812">
	<stop  offset="0.5242" style="stop-color:#BDBC1E;stop-opacity:0"/>
	<stop  offset="0.8896" style="stop-color:#030304;stop-opacity:0.7"/>
</linearGradient>
<path class="st2" d="M283.5,193.1c-8.3-15.4-20.5-37.6-37-63.8c-31.9-50.4-48.2-75.5-65.3-76.7c-26.5-2-35.9,35.9-88.6,74.1
	c-27.6,20-54.4,30.8-74.1,37c-0.6,2.6-4.2,18.8-17,33.7L2,281.4l281.5,2.1C283.5,241.8,283.5,197.1,283.5,193.1z"/>
</svg>
